<svg width="18.000000" height="18.000000" viewBox="0 0 18 18" fill="none" xmlns="http://www.w3.org/2000/svg" xmlns:xlink="http://www.w3.org/1999/xlink">
	<desc>
			Created with Pixso.
	</desc>
	<defs/>
	<path d="M3.77002 9.54251L3.75 9.5625C3.43506 9.5625 3.1875 9.315 3.1875 9C3.1875 8.685 3.43506 8.4375 3.75 8.4375L3.77002 8.45749L3.77002 9.54251ZM14.23 8.45749L14.25 8.4375C14.5649 8.4375 14.8125 8.685 14.8125 9C14.8125 9.315 14.5649 9.5625 14.25 9.5625L14.23 9.54251L14.23 8.45749Z" fill="#FFAB00" fill-opacity="1.000000" fill-rule="nonzero"/>
	<path d="M3.75 9L14.25 9" stroke="#FFAB00" stroke-opacity="1.000000" stroke-width="1.125000" stroke-linejoin="round" stroke-linecap="round"/>
	<path d="M10.1477 13.8695L10.1477 13.8977C9.92505 14.1205 9.57495 14.1205 9.35229 13.8977C9.12939 13.675 9.12939 13.325 9.35229 13.1023L9.38062 13.1023L10.1477 13.8695ZM13.8523 8.63052L13.8523 8.60226C14.075 8.37952 14.425 8.37952 14.6477 8.60226C14.8706 8.82498 14.8706 9.17502 14.6477 9.39774L14.6194 9.39774L13.8523 8.63052Z" fill="#FFAB00" fill-opacity="1.000000" fill-rule="nonzero"/>
	<path d="M9.75 13.5L14.25 9" stroke="#FFAB00" stroke-opacity="1.000000" stroke-width="1.125000" stroke-linejoin="round" stroke-linecap="round"/>
	<path d="M9.38062 4.89774L9.35229 4.89774C9.12939 4.67502 9.12939 4.32498 9.35229 4.10226C9.57495 3.87952 9.92505 3.87952 10.1477 4.10226L10.1477 4.13052L9.38062 4.89774ZM14.6194 8.60226L14.6477 8.60226C14.8706 8.82498 14.8706 9.17502 14.6477 9.39774C14.425 9.62048 14.075 9.62048 13.8523 9.39774L13.8523 9.36948L14.6194 8.60226Z" fill="#FFAB00" fill-opacity="1.000000" fill-rule="nonzero"/>
	<path d="M9.75 4.5L14.25 9" stroke="#FFAB00" stroke-opacity="1.000000" stroke-width="1.125000" stroke-linejoin="round" stroke-linecap="round"/>
</svg>
