<svg width="21.500000" height="19.500000" viewBox="0 0 21.5 19.5" fill="none" xmlns="http://www.w3.org/2000/svg" xmlns:xlink="http://www.w3.org/1999/xlink">
	<desc>
			Created with Pixso.
	</desc>
	<defs/>
	<path id="Vector" d="M8.75 6.75C8.75 7.30228 8.30225 7.75 7.75 7.75C7.19775 7.75 6.75 7.30228 6.75 6.75C6.75 6.19772 7.19775 5.75 7.75 5.75C8.30225 5.75 8.75 6.19772 8.75 6.75Z" fill="#28303F" fill-opacity="1.000000" fill-rule="evenodd"/>
	<path id="Vector" d="M14.75 12.75C14.75 13.3023 14.3022 13.75 13.75 13.75C13.1978 13.75 12.75 13.3023 12.75 12.75C12.75 12.1977 13.1978 11.75 13.75 11.75C14.3022 11.75 14.75 12.1977 14.75 12.75Z" fill="#28303F" fill-opacity="1.000000" fill-rule="evenodd"/>
	<path id="Vector" d="M0.75 14.75L0.75 13.75C0.75 13.1977 1.20996 12.7663 1.73193 12.5856C2.90649 12.179 3.75 11.063 3.75 9.75C3.75 8.43701 2.90649 7.32104 1.73193 6.91437C1.20996 6.73367 0.75 6.30228 0.75 5.75L0.75 4.75C0.75 2.54086 2.54077 0.75 4.75 0.75L16.75 0.75C18.9592 0.75 20.75 2.54086 20.75 4.75L20.75 5.75C20.75 6.30228 20.29 6.73367 19.7681 6.91437C18.5935 7.32104 17.75 8.43701 17.75 9.75C17.75 11.063 18.5935 12.179 19.7681 12.5856C20.29 12.7663 20.75 13.1977 20.75 13.75L20.75 14.75C20.75 16.9591 18.9592 18.75 16.75 18.75L4.75 18.75C2.54077 18.75 0.75 16.9591 0.75 14.75ZM7.75 7.75C7.19775 7.75 6.75 7.30228 6.75 6.75C6.75 6.19772 7.19775 5.75 7.75 5.75C8.30225 5.75 8.75 6.19772 8.75 6.75C8.75 7.30228 8.30225 7.75 7.75 7.75ZM13.75 13.75C13.1978 13.75 12.75 13.3023 12.75 12.75C12.75 12.1977 13.1978 11.75 13.75 11.75C14.3022 11.75 14.75 12.1977 14.75 12.75C14.75 13.3023 14.3022 13.75 13.75 13.75ZM13.75 6.75L7.75 12.75" stroke="#FEFEFE" stroke-opacity="1.000000" stroke-width="1.500000" stroke-linecap="round"/>
</svg>
