<svg width="18.333252" height="14.825806" viewBox="0 0 18.3333 14.8258" fill="none" xmlns="http://www.w3.org/2000/svg" xmlns:xlink="http://www.w3.org/1999/xlink">
	<desc>
			Created with Pixso.
	</desc>
	<defs/>
	<path id="Shape" d="M9.74365 3.26422C9.42114 3.57367 8.91211 3.57367 8.5896 3.26422L8.0127 2.71051C7.3374 2.06238 6.42505 1.66669 5.41675 1.66669C3.34558 1.66669 1.66663 3.34558 1.66663 5.41669C1.66663 7.40216 2.74146 9.04169 4.29309 10.3888C5.84619 11.7371 7.70288 12.6312 8.81226 13.0875C9.04419 13.183 9.28906 13.183 9.52124 13.0875C10.6306 12.6312 12.4873 11.7371 14.0403 10.3888C15.5918 9.04169 16.6667 7.40216 16.6667 5.41669C16.6667 3.34558 14.9878 1.66669 12.9167 1.66669C11.9084 1.66669 10.9961 2.06238 10.3206 2.71051L9.74365 3.26422ZM9.16675 1.508C8.19336 0.573975 6.87207 0 5.41675 0C2.42517 0 0 2.42511 0 5.41669C0 10.7236 5.80859 13.6542 8.17822 14.6289C8.81641 14.8914 9.51709 14.8914 10.1553 14.6289C12.5247 13.6542 18.3333 10.7235 18.3333 5.41669C18.3333 2.42511 15.9082 0 12.9167 0C11.4612 0 10.1399 0.573975 9.16675 1.508Z" fill="#6C7275" fill-opacity="1.000000" fill-rule="evenodd"/>
</svg>
