<svg width="16.000000" height="16.000000" viewBox="0 0 16 16" fill="none" xmlns="http://www.w3.org/2000/svg" xmlns:xlink="http://www.w3.org/1999/xlink">
	<desc>
			Created with Pixso.
	</desc>
	<defs/>
	<rect id="Star Icon" width="16.000000" height="16.000000" fill="#FFFFFF" fill-opacity="0"/>
	<path id="Rating/Star Fill" d="M7.53833 1.10999L6.00122 4.80554C5.9292 4.9787 5.76648 5.09698 5.57959 5.11194L1.58984 5.43182C1.14648 5.46735 0.966797 6.02057 1.30457 6.30994L4.34424 8.91376C4.48669 9.03577 4.54883 9.22717 4.50537 9.40955L3.57666 13.3028C3.47351 13.7354 3.94409 14.0773 4.32361 13.8455L7.73938 11.7592C7.89941 11.6614 8.10059 11.6614 8.26062 11.7592L11.6764 13.8455C12.0559 14.0773 12.5265 13.7354 12.4233 13.3028L11.4946 9.40955C11.4512 9.22717 11.5133 9.03577 11.6558 8.91376L14.6954 6.30994C15.0332 6.02057 14.8535 5.46735 14.4102 5.43182L10.4204 5.11194C10.2335 5.09698 10.0708 4.9787 9.99878 4.80554L8.46167 1.10999C8.29089 0.699341 7.70911 0.699341 7.53833 1.10999Z" fill="#343839" fill-opacity="1.000000" fill-rule="evenodd"/>
</svg>
